# This file uses centimeters as units for non-parametric coordinates.

mtllib Rock1.mtl
g default
v -1.615017 -0.021154 1.039302
v 1.106780 -0.024272 0.500000
v -0.500000 2.266697 1.324445
v 0.940595 2.114548 1.068580
v -0.500000 2.390843 -0.267652
v 0.940595 2.313476 -0.723800
v -1.087846 -0.024272 -0.055032
v 1.218899 0.785035 -0.500000
v -1.383191 -0.021510 1.722696
v -0.065147 -0.024272 1.551927
v 0.293149 1.030049 1.770139
v -0.792238 1.084175 2.040724
v -0.229842 2.746568 0.739173
v 0.269732 2.701122 0.648688
v 0.269732 2.637552 -0.086474
v -0.229842 2.681340 0.053481
v 0.049887 1.615500 -0.938133
v 0.545729 2.100670 -0.741074
v 0.786730 1.038198 -1.052498
v -0.384448 1.154385 -0.902678
vt 0.038550 0.240785
vt 0.185229 0.206913
vt 0.187747 0.333385
vt 0.243142 0.281598
vt 0.241887 0.376209
vt 0.331260 0.309431
vt 0.123528 0.442960
vt 0.260880 0.192250
vt 0.048026 0.301650
vt 0.127804 0.257120
vt 0.167477 0.280416
vt 0.131985 0.310724
vt 0.227153 0.334614
vt 0.245991 0.318029
vt 0.268885 0.331080
vt 0.246524 0.350523
vt 0.274267 0.397558
vt 0.306402 0.346616
vt 0.315554 0.451237
vt 0.237998 0.418323
vt 0.093959 0.152747
vt 0.286432 0.168888
vt 0.053299 0.368243
vn 0.120454 -0.333335 0.935082
vn 0.162482 -0.306945 0.937755
vn 0.161894 -0.307322 0.937733
vn 0.066746 0.993788 -0.089050
vn 0.069005 0.993463 -0.090935
vn 0.063065 0.994299 -0.085978
vn -0.018272 0.171802 -0.984962
vn 0.086058 0.298162 -0.950628
vn -0.001378 0.192633 -0.981270
vn 0.039621 -0.986857 -0.156663
vn 0.154528 -0.776392 -0.611013
vn 0.125470 -0.859144 -0.496114
vn 0.989823 0.123223 0.071176
vn 0.990787 0.101145 0.090061
vn 0.983098 0.181964 0.020195
vn -0.886313 0.178098 -0.427469
vn -0.924793 0.302403 -0.230891
vn -0.919614 0.386203 -0.071819
vn -0.001323 -0.999999 -0.000436
vn -0.001664 -0.999998 -0.001131
vn -0.002448 -0.999993 -0.002727
vn 0.696249 -0.169788 0.697431
vn 0.703800 -0.175378 0.688410
vn 0.893553 -0.359360 0.269116
vn 0.213797 0.455694 0.864080
vn 0.202242 0.470335 0.859001
vn 0.215709 0.453246 0.864892
vn -0.875076 0.388089 0.289188
vn -0.872603 0.388357 0.296214
vn -0.873451 0.388268 0.293820
vn 0.193881 0.709825 0.677170
vn 0.194133 0.709613 0.677319
vn 0.187000 0.715583 0.673032
vn 0.624686 0.776111 0.086137
vn 0.585430 0.808663 0.057755
vn 0.602840 0.794769 0.070189
vn -0.132054 0.820482 -0.556212
vn -0.125088 0.810504 -0.572221
vn -0.129399 0.816708 -0.562356
vn -0.816496 0.577151 0.015172
vn -0.841654 0.538852 0.035454
vn -0.691736 0.718906 -0.068388
vn -0.217665 0.540984 -0.812378
vn -0.235798 0.504925 -0.830331
vn -0.224724 0.527171 -0.819506
vn 0.410035 0.180938 -0.893942
vn 0.799031 0.057856 -0.598499
vn 0.748174 0.079514 -0.658720
vn 0.188909 -0.828384 -0.527345
vn -0.020876 -0.664479 -0.747015
vn 0.090158 -0.761578 -0.641771
vn -0.816787 0.201345 -0.540665
vn -0.799142 0.213857 -0.561816
vn -0.459993 0.371260 -0.806581
vn 0.989036 0.038982 0.142438
vn 0.990787 0.101145 0.090061
vn 0.989823 0.123223 0.071176
vn 0.410035 0.180938 -0.893942
vn 0.748174 0.079514 -0.658720
vn -0.097791 0.259440 -0.960795
vn 0.602840 0.794769 0.070189
vn 0.585430 0.808663 0.057755
vn 0.370938 0.925205 -0.080003
vn -0.129399 0.816708 -0.562356
vn -0.125088 0.810504 -0.572221
vn -0.104603 0.779717 -0.617333
vn -0.816496 0.577151 0.015172
vn -0.848365 0.527810 0.041157
vn -0.841654 0.538852 0.035454
vn -0.919614 0.386203 -0.071819
vn -0.924793 0.302403 -0.230891
vn -0.900065 0.434437 0.033876
vn -0.860286 0.166990 -0.481687
vn -0.799142 0.213857 -0.561816
vn -0.816787 0.201345 -0.540665
vn -0.217665 0.540984 -0.812378
vn -0.224724 0.527171 -0.819506
vn -0.214270 0.547527 -0.808890
vn -0.018272 0.171802 -0.984962
vn -0.001378 0.192633 -0.981270
vn -0.122928 0.039543 -0.991627
vn 0.090158 -0.761578 -0.641771
vn -0.020876 -0.664479 -0.747015
vn -0.158788 -0.512239 -0.844037
vn -0.875076 0.388089 0.289188
vn -0.873451 0.388268 0.293820
vn -0.877471 0.387803 0.282229
vn 0.213797 0.455694 0.864080
vn 0.215709 0.453246 0.864892
vn 0.239006 0.422792 0.874141
vn 0.161894 -0.307322 0.937733
vn 0.162482 -0.306945 0.937755
vn 0.220335 -0.268936 0.937617
vn 0.660978 -0.144400 0.736381
vn 0.703800 -0.175378 0.688410
vn 0.696249 -0.169788 0.697431
vn -0.001170 -0.999999 -0.000124
vn -0.001664 -0.999998 -0.001131
vn -0.001323 -0.999999 -0.000436
vn 0.039621 -0.986857 -0.156663
vn 0.125470 -0.859144 -0.496114
vn -0.000642 -0.999997 0.002539
vn 0.193881 0.709825 0.677170
vn 0.195264 0.708658 0.677994
vn 0.194133 0.709613 0.677319
vn 0.073212 0.992834 -0.094446
vn 0.069005 0.993463 -0.090935
vn 0.066746 0.993788 -0.089050
s off
g pCube1
usemtl pCube1SG1
f 9/9/1 10/10/2 12/12/3
f 16/16/4 14/14/5 15/15/6
f 17/17/7 18/18/8 19/19/9
f 7/21/10 8/8/11 2/2/12
f 4/4/13 8/8/14 6/6/15
f 7/7/16 1/23/17 5/5/18
f 9/9/19 2/2/20 10/10/21
f 10/10/22 4/4/23 11/11/24
f 4/4/25 3/3/26 12/12/27
f 3/3/28 1/23/29 9/9/30
f 3/3/31 14/14/32 13/13/33
f 4/4/34 6/6/35 14/14/36
f 6/6/37 5/5/38 15/15/39
f 5/5/40 13/13/41 16/16/42
f 5/5/43 6/6/44 18/18/45
f 6/6/46 8/8/47 19/22/48
f 8/8/49 7/21/50 19/22/51
f 20/20/52 5/5/53 17/17/54
f 2/2/55 8/8/56 4/4/57
f 6/6/58 19/19/59 18/18/60
f 14/14/61 6/6/62 15/15/63
f 15/15/64 5/5/65 16/16/66
f 5/5/67 3/3/68 13/13/69
f 5/5/70 1/23/71 3/3/72
f 7/7/73 5/5/74 20/20/75
f 5/5/76 18/18/77 17/17/78
f 17/17/79 19/19/80 20/20/81
f 19/19/82 7/7/83 20/20/84
f 3/3/85 9/9/86 12/12/87
f 4/4/88 12/12/89 11/11/90
f 12/12/91 10/10/92 11/11/93
f 2/2/94 4/4/95 10/10/96
f 1/1/97 2/2/98 9/9/99
f 7/21/100 2/2/101 1/1/102
f 3/3/103 4/4/104 14/14/105
f 13/13/106 14/14/107 16/16/108
