# This file uses centimeters as units for non-parametric coordinates.

mtllib TreeS.mtl
g default
v 0.468019 2.503526 -0.468019
v 0.000000 2.503526 -0.661879
v -0.468019 2.503526 -0.468019
v -0.661879 2.503526 0.000000
v -0.468019 2.503526 0.468019
v 0.000000 2.503526 0.661879
v 0.468019 2.503526 0.468019
v 0.661879 2.503526 0.000000
v 2.121320 2.503526 -2.121320
v 0.000000 2.503526 -3.000000
v -2.121320 2.503526 -2.121320
v -3.000000 2.503526 0.000000
v -2.121320 2.503526 2.121320
v 0.000000 2.503526 3.000000
v 2.121320 2.503526 2.121320
v 3.000000 2.503526 0.000000
v 1.767767 3.836860 -1.767767
v 0.000000 3.836860 -2.500000
v -1.767767 3.836860 -1.767767
v -2.500000 3.836860 0.000000
v -1.767767 3.836860 1.767767
v 0.000000 3.836860 2.500000
v 1.767767 3.836860 1.767767
v 2.500000 3.836860 0.000000
v 1.414214 5.170193 -1.414213
v 0.000000 5.170193 -2.000000
v -1.414213 5.170193 -1.414213
v -2.000000 5.170193 0.000000
v -1.414213 5.170193 1.414213
v 0.000000 5.170193 2.000000
v 1.414214 5.170193 1.414214
v 2.000000 5.170193 0.000000
v 1.060660 6.503527 -1.060660
v 0.000000 6.503527 -1.500000
v -1.060660 6.503527 -1.060660
v -1.500000 6.503527 0.000000
v -1.060660 6.503527 1.060660
v 0.000000 6.503527 1.500000
v 1.060660 6.503527 1.060660
v 1.500000 6.503527 0.000000
v 0.707107 7.836860 -0.707107
v -0.000000 7.836860 -1.000000
v -0.707107 7.836860 -0.707107
v -1.000000 7.836860 0.000000
v -0.707107 7.836860 0.707107
v -0.000000 7.836860 1.000000
v 0.707106 7.836860 0.707107
v 1.000000 7.836860 0.000000
v 0.353553 9.170193 -0.353553
v 0.000000 9.170193 -0.500000
v -0.353554 9.170193 -0.353553
v -0.500000 9.170193 0.000000
v -0.353554 9.170193 0.353553
v 0.000000 9.170193 0.500000
v 0.353554 9.170193 0.353553
v 0.500000 9.170193 0.000000
v 0.000001 10.503527 0.000000
v 0.468019 0.135360 -0.468019
v 0.000000 0.135360 -0.661879
v 0.000000 0.135360 0.000000
v -0.468019 0.135360 -0.468019
v -0.661879 0.135360 0.000000
v -0.468019 0.135360 0.468019
v 0.000000 0.135360 0.661879
v 0.468019 0.135360 0.468019
v 0.661879 0.135360 0.000000
vt 0.913129 0.073258
vt 0.754034 0.002699
vt 0.591640 0.065311
vt 0.521073 0.224413
vt 0.583669 0.386817
vt 0.742781 0.457366
vt 0.905177 0.394749
vt 0.975734 0.235647
vt 0.454476 0.103411
vt 0.291507 0.003147
vt 0.105374 0.047486
vt 0.005110 0.210455
vt 0.049449 0.396589
vt 0.212417 0.496853
vt 0.398551 0.452514
vt 0.498815 0.289545
vt 0.065020 0.807593
vt 0.128512 0.690470
vt 0.220902 0.594484
vt 0.335516 0.526568
vt 0.464078 0.491626
vt 0.597302 0.492182
vt 0.725568 0.528196
vt 0.839611 0.597067
vt 0.931196 0.693820
vt 0.142290 0.836853
vt 0.195200 0.739250
vt 0.272191 0.659262
vt 0.367703 0.602665
vt 0.474838 0.573547
vt 0.585858 0.574010
vt 0.692746 0.604022
vt 0.787783 0.661414
vt 0.864103 0.742042
vt 0.219560 0.866112
vt 0.261888 0.788030
vt 0.323481 0.724039
vt 0.399890 0.678762
vt 0.485598 0.655467
vt 0.574415 0.655838
vt 0.659925 0.679847
vt 0.735954 0.725761
vt 0.797011 0.790263
vt 0.296830 0.895371
vt 0.328576 0.836810
vt 0.374771 0.788817
vt 0.432078 0.754859
vt 0.496359 0.737388
vt 0.562971 0.737666
vt 0.627104 0.755673
vt 0.684125 0.790108
vt 0.729918 0.838485
vt 0.374100 0.924631
vt 0.395264 0.885590
vt 0.426060 0.853594
vt 0.464265 0.830956
vt 0.507119 0.819308
vt 0.551527 0.819494
vt 0.594282 0.831498
vt 0.632297 0.854455
vt 0.662825 0.886706
vt 0.451370 0.953890
vt 0.461952 0.934369
vt 0.477350 0.918372
vt 0.496452 0.907052
vt 0.517879 0.901229
vt 0.540083 0.901321
vt 0.561461 0.907324
vt 0.580468 0.918802
vt 0.595732 0.934928
vt 0.748326 0.230040
vt 0.528640 0.983149
vt 0.766029 0.116345
vt 0.841241 0.162132
vt 0.680452 0.137136
vt 0.634648 0.212373
vt 0.655501 0.297953
vt 0.730744 0.343716
vt 0.816301 0.322901
vt 0.862067 0.247681
vt 0.306425 0.258725
vt 0.296642 0.217659
vt 0.284304 0.294680
vt 0.243238 0.304462
vt 0.207283 0.282341
vt 0.197500 0.241275
vt 0.219621 0.205320
vt 0.260687 0.195538
vn 0.000000 -1.000000 0.000000
vn 0.000000 -1.000000 0.000000
vn 0.000000 -1.000000 0.000000
vn 0.000000 -1.000000 0.000000
vn 0.000000 -1.000000 0.000000
vn 0.000000 -1.000000 0.000000
vn 0.000000 -1.000000 0.000000
vn 0.000000 -1.000000 0.000000
vn 0.000000 -1.000000 0.000000
vn 0.000000 -1.000000 0.000000
vn 0.000000 -1.000000 0.000000
vn 0.000000 -1.000000 0.000000
vn 0.000000 -1.000000 0.000000
vn 0.000000 -1.000000 0.000000
vn 0.000000 -1.000000 0.000000
vn 0.000000 -1.000000 0.000000
vn 0.000000 -1.000000 0.000000
vn 0.000000 -1.000000 0.000000
vn 0.000000 -1.000000 0.000000
vn 0.000000 -1.000000 0.000000
vn 0.000000 -1.000000 0.000000
vn 0.000000 -1.000000 -0.000000
vn 0.000000 -1.000000 -0.000000
vn 0.000000 -1.000000 0.000000
vn 0.000000 -1.000000 -0.000000
vn 0.000000 -1.000000 0.000000
vn 0.000000 -1.000000 0.000000
vn 0.000000 -1.000000 -0.000000
vn 0.000000 -1.000000 0.000000
vn 0.000000 -1.000000 0.000000
vn 0.000000 -1.000000 0.000000
vn 0.000000 -1.000000 0.000000
vn 0.361597 0.327364 -0.872972
vn 0.361597 0.327364 -0.872972
vn 0.361597 0.327364 -0.872972
vn 0.361597 0.327364 -0.872972
vn -0.361597 0.327364 -0.872972
vn -0.361597 0.327364 -0.872972
vn -0.361597 0.327365 -0.872972
vn -0.361597 0.327365 -0.872972
vn -0.872972 0.327364 -0.361597
vn -0.872972 0.327364 -0.361597
vn -0.872972 0.327365 -0.361597
vn -0.872972 0.327365 -0.361597
vn -0.872972 0.327364 0.361597
vn -0.872972 0.327364 0.361597
vn -0.872972 0.327364 0.361597
vn -0.872972 0.327364 0.361597
vn -0.361597 0.327365 0.872972
vn -0.361597 0.327365 0.872972
vn -0.361597 0.327365 0.872972
vn -0.361597 0.327365 0.872972
vn 0.361597 0.327364 0.872972
vn 0.361597 0.327364 0.872972
vn 0.361597 0.327364 0.872972
vn 0.361597 0.327364 0.872972
vn 0.872972 0.327364 0.361597
vn 0.872972 0.327364 0.361597
vn 0.872972 0.327364 0.361597
vn 0.872972 0.327364 0.361597
vn 0.872972 0.327365 -0.361597
vn 0.872972 0.327365 -0.361597
vn 0.872972 0.327365 -0.361597
vn 0.872972 0.327365 -0.361597
vn 0.361597 0.327364 -0.872972
vn 0.361597 0.327364 -0.872972
vn 0.361597 0.327364 -0.872972
vn 0.361597 0.327364 -0.872972
vn -0.361597 0.327365 -0.872972
vn -0.361597 0.327365 -0.872972
vn -0.361597 0.327365 -0.872972
vn -0.361597 0.327365 -0.872972
vn -0.872972 0.327365 -0.361597
vn -0.872972 0.327365 -0.361597
vn -0.872972 0.327365 -0.361597
vn -0.872972 0.327365 -0.361597
vn -0.872972 0.327364 0.361597
vn -0.872972 0.327364 0.361597
vn -0.872972 0.327365 0.361597
vn -0.872972 0.327365 0.361597
vn -0.361597 0.327365 0.872972
vn -0.361597 0.327365 0.872972
vn -0.361597 0.327364 0.872972
vn -0.361597 0.327364 0.872972
vn 0.361597 0.327364 0.872972
vn 0.361597 0.327364 0.872972
vn 0.361597 0.327364 0.872972
vn 0.361597 0.327364 0.872972
vn 0.872972 0.327364 0.361597
vn 0.872972 0.327364 0.361597
vn 0.872972 0.327364 0.361597
vn 0.872972 0.327364 0.361597
vn 0.872972 0.327365 -0.361597
vn 0.872972 0.327365 -0.361597
vn 0.872972 0.327364 -0.361597
vn 0.872972 0.327364 -0.361597
vn 0.361597 0.327364 -0.872972
vn 0.361597 0.327364 -0.872972
vn 0.361597 0.327365 -0.872972
vn 0.361597 0.327365 -0.872972
vn -0.361597 0.327365 -0.872972
vn -0.361597 0.327365 -0.872972
vn -0.361597 0.327365 -0.872972
vn -0.361597 0.327365 -0.872972
vn -0.872972 0.327365 -0.361597
vn -0.872972 0.327365 -0.361597
vn -0.872972 0.327364 -0.361597
vn -0.872972 0.327364 -0.361597
vn -0.872972 0.327365 0.361597
vn -0.872972 0.327365 0.361597
vn -0.872972 0.327364 0.361597
vn -0.872972 0.327364 0.361597
vn -0.361597 0.327364 0.872972
vn -0.361597 0.327364 0.872972
vn -0.361597 0.327364 0.872972
vn -0.361597 0.327364 0.872972
vn 0.361597 0.327364 0.872972
vn 0.361597 0.327364 0.872972
vn 0.361597 0.327365 0.872972
vn 0.361597 0.327365 0.872972
vn 0.872972 0.327364 0.361597
vn 0.872972 0.327364 0.361597
vn 0.872972 0.327365 0.361597
vn 0.872972 0.327365 0.361597
vn 0.872972 0.327364 -0.361597
vn 0.872972 0.327364 -0.361597
vn 0.872972 0.327365 -0.361597
vn 0.872972 0.327365 -0.361597
vn 0.361597 0.327365 -0.872972
vn 0.361597 0.327365 -0.872972
vn 0.361597 0.327365 -0.872972
vn 0.361597 0.327365 -0.872972
vn -0.361597 0.327365 -0.872972
vn -0.361597 0.327365 -0.872972
vn -0.361597 0.327365 -0.872972
vn -0.361597 0.327365 -0.872972
vn -0.872972 0.327364 -0.361597
vn -0.872972 0.327364 -0.361597
vn -0.872972 0.327364 -0.361597
vn -0.872972 0.327364 -0.361597
vn -0.872972 0.327364 0.361597
vn -0.872972 0.327364 0.361597
vn -0.872972 0.327364 0.361597
vn -0.872972 0.327364 0.361597
vn -0.361597 0.327364 0.872972
vn -0.361597 0.327364 0.872972
vn -0.361597 0.327365 0.872972
vn -0.361597 0.327364 0.872972
vn 0.361597 0.327365 0.872972
vn 0.361597 0.327365 0.872972
vn 0.361597 0.327365 0.872972
vn 0.361597 0.327365 0.872972
vn 0.872972 0.327365 0.361597
vn 0.872972 0.327365 0.361597
vn 0.872972 0.327365 0.361597
vn 0.872972 0.327365 0.361597
vn 0.872972 0.327365 -0.361597
vn 0.872972 0.327365 -0.361597
vn 0.872972 0.327365 -0.361597
vn 0.872972 0.327365 -0.361597
vn 0.361597 0.327365 -0.872972
vn 0.361597 0.327365 -0.872972
vn 0.361597 0.327364 -0.872972
vn 0.361597 0.327364 -0.872972
vn -0.361597 0.327365 -0.872972
vn -0.361597 0.327365 -0.872972
vn -0.361597 0.327365 -0.872972
vn -0.361597 0.327365 -0.872972
vn -0.872972 0.327364 -0.361597
vn -0.872972 0.327364 -0.361597
vn -0.872972 0.327365 -0.361596
vn -0.872972 0.327365 -0.361596
vn -0.872972 0.327364 0.361597
vn -0.872972 0.327364 0.361597
vn -0.872972 0.327365 0.361596
vn -0.872972 0.327365 0.361596
vn -0.361597 0.327364 0.872972
vn -0.361597 0.327365 0.872972
vn -0.361597 0.327365 0.872972
vn -0.361597 0.327365 0.872972
vn 0.361597 0.327365 0.872972
vn 0.361597 0.327365 0.872972
vn 0.361597 0.327364 0.872972
vn 0.361597 0.327364 0.872972
vn 0.872972 0.327365 0.361597
vn 0.872972 0.327365 0.361597
vn 0.872972 0.327364 0.361597
vn 0.872972 0.327364 0.361597
vn 0.872972 0.327365 -0.361597
vn 0.872972 0.327365 -0.361597
vn 0.872972 0.327364 -0.361597
vn 0.872972 0.327364 -0.361597
vn 0.000000 -1.000000 0.000000
vn 0.000000 -1.000000 0.000001
vn 0.000000 -1.000000 0.000000
vn 0.000000 -1.000000 0.000000
vn 0.000000 -1.000000 0.000000
vn 0.000000 -1.000000 0.000000
vn 0.000000 -1.000000 0.000000
vn 0.000000 -1.000000 0.000000
vn 0.000000 -1.000000 0.000000
vn 0.000000 -1.000000 0.000000
vn 0.000000 -1.000000 0.000000
vn 0.000000 -1.000000 0.000000
vn 0.000000 -1.000000 0.000000
vn 0.000000 -1.000000 0.000000
vn 0.000000 -1.000000 0.000000
vn 0.000000 -1.000000 0.000000
vn 0.000000 -1.000000 0.000000
vn 0.000000 -1.000000 0.000000
vn 0.000000 -1.000000 0.000001
vn 0.000000 -1.000000 0.000000
vn 0.000000 -1.000000 0.000000
vn 0.000000 -1.000000 0.000001
vn 0.000000 -1.000000 0.000001
vn 0.000000 -1.000000 0.000000
vn 0.361597 0.327364 -0.872972
vn 0.361597 0.327364 -0.872972
vn 0.361597 0.327364 -0.872972
vn -0.361597 0.327365 -0.872972
vn -0.361597 0.327365 -0.872972
vn -0.361597 0.327365 -0.872972
vn -0.872972 0.327365 -0.361596
vn -0.872972 0.327365 -0.361596
vn -0.872972 0.327365 -0.361596
vn -0.872972 0.327365 0.361596
vn -0.872972 0.327365 0.361596
vn -0.872972 0.327365 0.361596
vn -0.361597 0.327365 0.872972
vn -0.361597 0.327365 0.872972
vn -0.361597 0.327365 0.872972
vn 0.361597 0.327364 0.872972
vn 0.361597 0.327364 0.872972
vn 0.361597 0.327364 0.872972
vn 0.872972 0.327364 0.361597
vn 0.872972 0.327364 0.361597
vn 0.872972 0.327364 0.361597
vn 0.872972 0.327364 -0.361597
vn 0.872972 0.327364 -0.361597
vn 0.872972 0.327364 -0.361598
vn 0.382683 0.000000 -0.923880
vn 0.382683 0.000000 -0.923880
vn 0.382683 0.000000 -0.923880
vn 0.382683 0.000000 -0.923880
vn -0.382683 0.000000 -0.923880
vn -0.382683 0.000000 -0.923880
vn -0.382683 0.000000 -0.923880
vn -0.382683 0.000000 -0.923880
vn -0.923880 0.000000 -0.382683
vn -0.923880 0.000000 -0.382683
vn -0.923880 0.000000 -0.382683
vn -0.923880 0.000000 -0.382683
vn -0.923880 0.000000 0.382683
vn -0.923880 0.000000 0.382683
vn -0.923880 0.000000 0.382683
vn -0.923880 0.000000 0.382683
vn -0.382683 0.000000 0.923880
vn -0.382683 0.000000 0.923880
vn -0.382683 0.000000 0.923880
vn -0.382683 0.000000 0.923880
vn 0.382683 0.000000 0.923880
vn 0.382683 0.000000 0.923880
vn 0.382683 0.000000 0.923880
vn 0.382683 0.000000 0.923880
vn 0.923880 0.000000 0.382683
vn 0.923880 0.000000 0.382683
vn 0.923880 0.000000 0.382683
vn 0.923880 0.000000 0.382683
vn 0.923880 0.000000 -0.382683
vn 0.923880 0.000000 -0.382683
vn 0.923880 0.000000 -0.382683
vn 0.923880 0.000000 -0.382683
s off
g pCone1
usemtl pCone1SG
f 1/82/1 2/88/2 10/10/3 9/9/4
f 2/88/5 3/87/6 11/11/7 10/10/8
f 3/87/9 4/86/10 12/12/11 11/11/12
f 4/86/13 5/85/14 13/13/15 12/12/16
f 5/85/17 6/84/18 14/14/19 13/13/20
f 6/84/21 7/83/22 15/15/23 14/14/24
f 7/83/25 8/81/26 16/16/27 15/15/28
f 8/81/29 1/82/30 9/9/31 16/16/32
f 9/17/33 10/18/34 18/27/35 17/26/36
f 10/18/37 11/19/38 19/28/39 18/27/40
f 11/19/41 12/20/42 20/29/43 19/28/44
f 12/20/45 13/21/46 21/30/47 20/29/48
f 13/21/49 14/22/50 22/31/51 21/30/52
f 14/22/53 15/23/54 23/32/55 22/31/56
f 15/23/57 16/24/58 24/33/59 23/32/60
f 16/24/61 9/25/62 17/34/63 24/33/64
f 17/26/65 18/27/66 26/36/67 25/35/68
f 18/27/69 19/28/70 27/37/71 26/36/72
f 19/28/73 20/29/74 28/38/75 27/37/76
f 20/29/77 21/30/78 29/39/79 28/38/80
f 21/30/81 22/31/82 30/40/83 29/39/84
f 22/31/85 23/32/86 31/41/87 30/40/88
f 23/32/89 24/33/90 32/42/91 31/41/92
f 24/33/93 17/34/94 25/43/95 32/42/96
f 25/35/97 26/36/98 34/45/99 33/44/100
f 26/36/101 27/37/102 35/46/103 34/45/104
f 27/37/105 28/38/106 36/47/107 35/46/108
f 28/38/109 29/39/110 37/48/111 36/47/112
f 29/39/113 30/40/114 38/49/115 37/48/116
f 30/40/117 31/41/118 39/50/119 38/49/120
f 31/41/121 32/42/122 40/51/123 39/50/124
f 32/42/125 25/43/126 33/52/127 40/51/128
f 33/44/129 34/45/130 42/54/131 41/53/132
f 34/45/133 35/46/134 43/55/135 42/54/136
f 35/46/137 36/47/138 44/56/139 43/55/140
f 36/47/141 37/48/142 45/57/143 44/56/144
f 37/48/145 38/49/146 46/58/147 45/57/148
f 38/49/149 39/50/150 47/59/151 46/58/152
f 39/50/153 40/51/154 48/60/155 47/59/156
f 40/51/157 33/52/158 41/61/159 48/60/160
f 41/53/161 42/54/162 50/63/163 49/62/164
f 42/54/165 43/55/166 51/64/167 50/63/168
f 43/55/169 44/56/170 52/65/171 51/64/172
f 44/56/173 45/57/174 53/66/175 52/65/176
f 45/57/177 46/58/178 54/67/179 53/66/180
f 46/58/181 47/59/182 55/68/183 54/67/184
f 47/59/185 48/60/186 56/69/187 55/68/188
f 48/60/189 41/61/190 49/70/191 56/69/192
f 59/73/193 58/74/194 60/71/195
f 61/75/196 59/73/197 60/71/198
f 62/76/199 61/75/200 60/71/201
f 63/77/202 62/76/203 60/71/204
f 64/78/205 63/77/206 60/71/207
f 65/79/208 64/78/209 60/71/210
f 66/80/211 65/79/212 60/71/213
f 58/74/214 66/80/215 60/71/216
f 49/62/217 50/63/218 57/72/219
f 50/63/220 51/64/221 57/72/222
f 51/64/223 52/65/224 57/72/225
f 52/65/226 53/66/227 57/72/228
f 53/66/229 54/67/230 57/72/231
f 54/67/232 55/68/233 57/72/234
f 55/68/235 56/69/236 57/72/237
f 56/69/238 49/70/239 57/72/240
f 2/2/241 1/1/242 58/74/243 59/73/244
f 3/3/245 2/2/246 59/73/247 61/75/248
f 4/4/249 3/3/250 61/75/251 62/76/252
f 5/5/253 4/4/254 62/76/255 63/77/256
f 6/6/257 5/5/258 63/77/259 64/78/260
f 7/7/261 6/6/262 64/78/263 65/79/264
f 8/8/265 7/7/266 65/79/267 66/80/268
f 1/1/269 8/8/270 66/80/271 58/74/272
