# This file uses centimeters as units for non-parametric coordinates.

mtllib TreeB1.mtl
g default
v 0.465577 2.504181 -0.468019
v -0.002443 2.504445 -0.661879
v -0.470462 2.504709 -0.468019
v -0.664322 2.504818 0.000000
v -0.470462 2.504709 0.468019
v -0.002443 2.504445 0.661879
v 0.465577 2.504181 0.468019
v 0.659437 2.504072 0.000000
v 2.121320 2.503526 -2.121320
v 0.000000 2.503526 -3.000000
v -2.121320 2.503526 -2.121320
v -3.000000 2.503526 0.000000
v -2.121320 2.503526 2.121320
v 0.000000 2.503526 3.000000
v 2.121320 2.503526 2.121320
v 3.000000 2.503526 0.000000
v 1.710240 3.834086 -1.767767
v -0.057202 3.867953 -2.500000
v -1.824645 3.901820 -1.767767
v -2.556743 3.915848 0.000000
v -1.824645 3.901820 1.767767
v -0.057202 3.867953 2.500000
v 1.710240 3.834086 1.767767
v 2.442339 3.820057 0.000000
v 1.255420 5.181623 -1.414213
v -0.152374 5.316218 -2.000000
v -1.560168 5.450813 -1.414213
v -2.143295 5.506564 0.000000
v -1.560168 5.450813 1.414213
v -0.152374 5.316218 2.000000
v 1.255421 5.181623 1.414214
v 1.838548 5.125872 0.000000
v 0.992862 6.549701 -1.060660
v -0.044891 6.768945 -1.500000
v -1.082644 6.988189 -1.060660
v -1.512496 7.079002 0.000000
v -1.082644 6.988189 1.060660
v -0.044891 6.768945 1.500000
v 0.992862 6.549701 1.060660
v 1.422714 6.458887 0.000000
v 1.033019 7.890435 -0.707107
v 0.362965 8.116326 -1.000000
v -0.307091 8.342216 -0.707107
v -0.584636 8.435783 0.000000
v -0.307091 8.342216 0.707107
v 0.362965 8.116326 1.000000
v 1.033019 7.890435 0.707107
v 1.310565 7.796868 0.000000
v 1.310943 9.187494 -0.353553
v 0.987020 9.329177 -0.500000
v 0.663098 9.470860 -0.353553
v 0.528925 9.529546 0.000000
v 0.663098 9.470860 0.353553
v 0.987020 9.329177 0.500000
v 1.310943 9.187494 0.353553
v 1.445117 9.128807 0.000000
v 1.629343 10.503527 0.000000
v 0.468019 0.135360 -0.468019
v 0.000000 0.135360 -0.661879
v 0.000000 0.135360 0.000000
v -0.468019 0.135360 -0.468019
v -0.661879 0.135360 0.000000
v -0.468019 0.135360 0.468019
v 0.000000 0.135360 0.661879
v 0.468019 0.135360 0.468019
v 0.661879 0.135360 0.000000
vt 0.985714 0.292899
vt 0.538223 0.438874
vt 0.607799 0.439744
vt 0.678098 0.433176
vt 0.747230 0.417633
vt 0.813376 0.393232
vt 0.875239 0.361655
vt 0.932396 0.326174
vt 0.375326 0.114358
vt 0.233854 0.044113
vt 0.084148 0.094478
vt 0.013903 0.235949
vt 0.064267 0.385656
vt 0.205739 0.455901
vt 0.355446 0.405536
vt 0.425691 0.264065
vt 0.076338 0.729884
vt 0.147817 0.623961
vt 0.247881 0.539373
vt 0.369901 0.485128
vt 0.502438 0.470159
vt 0.631209 0.491999
vt 0.746877 0.545745
vt 0.843178 0.626828
vt 0.913302 0.731066
vt 0.148200 0.763123
vt 0.208559 0.675799
vt 0.291718 0.606905
vt 0.391800 0.563270
vt 0.500253 0.550528
vt 0.606971 0.567974
vt 0.703887 0.612293
vt 0.784741 0.679984
vt 0.843040 0.767141
vt 0.222736 0.796633
vt 0.273102 0.729470
vt 0.339094 0.678707
vt 0.415549 0.647502
vt 0.497446 0.636129
vt 0.580464 0.647008
vt 0.658906 0.680372
vt 0.725469 0.734916
vt 0.772923 0.805502
vt 0.294894 0.837770
vt 0.333919 0.788566
vt 0.383364 0.752735
vt 0.439024 0.730923
vt 0.498207 0.721805
vt 0.559187 0.727994
vt 0.617910 0.751189
vt 0.668284 0.790983
vt 0.705037 0.843841
vt 0.365374 0.882223
vt 0.390738 0.849788
vt 0.423513 0.825725
vt 0.461363 0.810405
vt 0.501737 0.804288
vt 0.542215 0.808191
vt 0.580508 0.822837
vt 0.613787 0.848053
vt 0.638977 0.881375
vt 0.433999 0.925862
vt 0.446330 0.908969
vt 0.463018 0.895882
vt 0.482895 0.887483
vt 0.504162 0.884060
vt 0.525099 0.886228
vt 0.544223 0.893780
vt 0.560548 0.906101
vt 0.573475 0.922254
vt 0.653132 0.068112
vt 0.504408 0.963278
vt 0.550754 0.135639
vt 0.503402 0.107593
vt 0.594546 0.151578
vt 0.635107 0.157094
vt 0.673044 0.153024
vt 0.709000 0.139463
vt 0.743412 0.115683
vt 0.776157 0.079976
vt 0.265055 0.253097
vt 0.253943 0.220068
vt 0.249557 0.284309
vt 0.216528 0.295421
vt 0.185315 0.279923
vt 0.174203 0.246894
vt 0.189701 0.215682
vt 0.222731 0.204570
vt 0.470902 0.434021
vt 0.805308 0.028803
vn -0.000249 -1.000000 0.000185
vn -0.000064 -1.000000 0.000393
vn -0.000064 -1.000000 0.000393
vn -0.000249 -1.000000 0.000185
vn -0.000064 -1.000000 0.000393
vn 0.000307 -1.000000 0.000370
vn 0.000307 -1.000000 0.000370
vn -0.000064 -1.000000 0.000393
vn 0.000307 -1.000000 0.000370
vn 0.000515 -1.000000 -0.000000
vn 0.000515 -1.000000 -0.000000
vn 0.000307 -1.000000 0.000370
vn 0.000515 -1.000000 -0.000000
vn 0.000307 -1.000000 -0.000370
vn 0.000307 -1.000000 -0.000370
vn 0.000515 -1.000000 -0.000000
vn 0.000307 -1.000000 -0.000370
vn -0.000064 -1.000000 -0.000393
vn -0.000064 -1.000000 -0.000393
vn 0.000307 -1.000000 -0.000370
vn -0.000064 -1.000000 -0.000393
vn -0.000249 -1.000000 -0.000185
vn -0.000249 -1.000000 -0.000185
vn -0.000064 -1.000000 -0.000393
vn -0.000249 -1.000000 -0.000185
vn -0.000271 -1.000000 -0.000000
vn -0.000271 -1.000000 -0.000000
vn -0.000249 -1.000000 -0.000185
vn -0.000271 -1.000000 -0.000000
vn -0.000249 -1.000000 0.000185
vn -0.000249 -1.000000 0.000185
vn -0.000271 -1.000000 -0.000000
vn 0.362689 0.338069 -0.868428
vn 0.362689 0.338069 -0.868428
vn 0.368572 0.337804 -0.866051
vn 0.367997 0.337830 -0.866285
vn -0.362381 0.303654 -0.881177
vn -0.362381 0.303654 -0.881177
vn -0.359663 0.290656 -0.886658
vn -0.359914 0.291845 -0.886165
vn -0.886647 0.279743 -0.368240
vn -0.886647 0.279743 -0.368240
vn -0.891140 0.260337 -0.371611
vn -0.890981 0.261053 -0.371490
vn -0.886647 0.279743 0.368240
vn -0.886647 0.279743 0.368240
vn -0.890981 0.261053 0.371490
vn -0.891140 0.260337 0.371611
vn -0.362381 0.303654 0.881177
vn -0.362382 0.303655 0.881177
vn -0.359914 0.291845 0.886165
vn -0.359663 0.290656 0.886658
vn 0.362689 0.338069 0.868428
vn 0.362689 0.338069 0.868428
vn 0.367997 0.337830 0.866285
vn 0.368572 0.337804 0.866051
vn 0.861430 0.362731 0.355478
vn 0.861430 0.362732 0.355478
vn 0.858952 0.372569 0.351274
vn 0.858837 0.373016 0.351081
vn 0.861430 0.362732 -0.355478
vn 0.861430 0.362732 -0.355478
vn 0.858837 0.373016 -0.351081
vn 0.858952 0.372569 -0.351274
vn 0.367997 0.337830 -0.866285
vn 0.368572 0.337804 -0.866051
vn 0.388604 0.315516 -0.865700
vn 0.387135 0.318126 -0.865403
vn -0.359914 0.291845 -0.886165
vn -0.359663 0.290656 -0.886658
vn -0.343831 0.293199 -0.892085
vn -0.345209 0.291132 -0.892229
vn -0.890981 0.261053 -0.371490
vn -0.891140 0.260337 -0.371611
vn -0.882606 0.283491 -0.375020
vn -0.883270 0.281353 -0.375068
vn -0.891140 0.260337 0.371611
vn -0.890981 0.261053 0.371490
vn -0.883269 0.281353 0.375068
vn -0.882606 0.283491 0.375020
vn -0.359663 0.290656 0.886658
vn -0.359914 0.291845 0.886165
vn -0.345210 0.291132 0.892229
vn -0.343831 0.293199 0.892084
vn 0.368572 0.337804 0.866051
vn 0.367997 0.337830 0.866285
vn 0.387135 0.318126 0.865403
vn 0.388604 0.315516 0.865700
vn 0.858837 0.373016 0.351081
vn 0.858952 0.372569 0.351274
vn 0.872303 0.343687 0.347802
vn 0.873219 0.341212 0.347940
vn 0.858952 0.372569 -0.351274
vn 0.858837 0.373016 -0.351081
vn 0.873219 0.341212 -0.347940
vn 0.872303 0.343687 -0.347802
vn 0.387135 0.318126 -0.865403
vn 0.388604 0.315516 -0.865700
vn 0.415149 0.256096 -0.872964
vn 0.414870 0.256940 -0.872849
vn -0.345209 0.291132 -0.892229
vn -0.343831 0.293199 -0.892085
vn -0.306764 0.348030 -0.885873
vn -0.307355 0.347170 -0.886006
vn -0.883270 0.281353 -0.375068
vn -0.882606 0.283491 -0.375020
vn -0.829068 0.418770 -0.370511
vn -0.829465 0.417949 -0.370549
vn -0.882606 0.283491 0.375020
vn -0.883269 0.281353 0.375068
vn -0.829465 0.417948 0.370549
vn -0.829068 0.418770 0.370511
vn -0.343831 0.293199 0.892084
vn -0.345210 0.291132 0.892229
vn -0.307355 0.347170 0.886006
vn -0.306765 0.348030 0.885873
vn 0.388604 0.315516 0.865700
vn 0.387135 0.318126 0.865403
vn 0.414870 0.256940 0.872849
vn 0.415149 0.256096 0.872964
vn 0.873219 0.341212 0.347940
vn 0.872303 0.343687 0.347802
vn 0.912337 0.199984 0.357279
vn 0.912501 0.199112 0.357346
vn 0.872303 0.343687 -0.347802
vn 0.873219 0.341212 -0.347940
vn 0.912501 0.199112 -0.357346
vn 0.912337 0.199984 -0.357279
vn 0.414870 0.256940 -0.872849
vn 0.415149 0.256096 -0.872964
vn 0.434890 0.186660 -0.880925
vn 0.435317 0.184548 -0.881159
vn -0.307355 0.347170 -0.886006
vn -0.306764 0.348030 -0.885873
vn -0.253699 0.416321 -0.873106
vn -0.251905 0.418189 -0.872732
vn -0.829465 0.417949 -0.370549
vn -0.829068 0.418770 -0.370511
vn -0.733558 0.576663 -0.359656
vn -0.732300 0.578331 -0.359541
vn -0.829068 0.418770 0.370511
vn -0.829465 0.417948 0.370549
vn -0.732300 0.578331 0.359541
vn -0.733558 0.576663 0.359656
vn -0.306765 0.348030 0.885873
vn -0.307355 0.347170 0.886006
vn -0.251905 0.418189 0.872732
vn -0.253699 0.416321 0.873106
vn 0.415149 0.256096 0.872964
vn 0.414870 0.256940 0.872849
vn 0.435317 0.184548 0.881159
vn 0.434890 0.186660 0.880925
vn 0.912501 0.199112 0.357346
vn 0.912337 0.199984 0.357279
vn 0.929739 0.016125 0.367866
vn 0.929750 0.018511 0.367726
vn 0.912337 0.199984 -0.357279
vn 0.912501 0.199112 -0.357346
vn 0.929750 0.018511 -0.367726
vn 0.929739 0.016125 -0.367866
vn 0.435317 0.184548 -0.881159
vn 0.434890 0.186660 -0.880925
vn 0.445739 0.138584 -0.884371
vn 0.446050 0.138161 -0.884280
vn -0.251905 0.418189 -0.872732
vn -0.253699 0.416321 -0.873106
vn -0.206447 0.460859 -0.863128
vn -0.205722 0.461142 -0.863149
vn -0.732300 0.578331 -0.359541
vn -0.733558 0.576663 -0.359656
vn -0.647846 0.676253 -0.350682
vn -0.647475 0.676598 -0.350700
vn -0.733558 0.576663 0.359656
vn -0.732300 0.578331 0.359541
vn -0.647475 0.676598 0.350700
vn -0.647846 0.676253 0.350682
vn -0.253699 0.416321 0.873106
vn -0.251905 0.418189 0.872732
vn -0.205722 0.461142 0.863149
vn -0.206447 0.460858 0.863128
vn 0.434890 0.186660 0.880925
vn 0.435317 0.184548 0.881159
vn 0.446050 0.138161 0.884280
vn 0.445739 0.138584 0.884371
vn 0.929750 0.018511 0.367726
vn 0.929739 0.016125 0.367866
vn 0.922846 -0.101396 0.371583
vn 0.922875 -0.101038 0.371608
vn 0.929739 0.016125 -0.367866
vn 0.929750 0.018511 -0.367726
vn 0.922875 -0.101037 -0.371608
vn 0.922846 -0.101396 -0.371583
vn 0.000000 -1.000000 0.000000
vn 0.000000 -1.000000 0.000001
vn 0.000000 -1.000000 0.000000
vn 0.000000 -1.000000 0.000000
vn 0.000000 -1.000000 0.000000
vn 0.000000 -1.000000 0.000000
vn 0.000000 -1.000000 0.000000
vn 0.000000 -1.000000 0.000000
vn 0.000000 -1.000000 0.000000
vn 0.000000 -1.000000 0.000000
vn 0.000000 -1.000000 0.000000
vn 0.000000 -1.000000 0.000000
vn 0.000000 -1.000000 0.000000
vn 0.000000 -1.000000 0.000000
vn 0.000000 -1.000000 0.000000
vn 0.000000 -1.000000 0.000000
vn 0.000000 -1.000000 0.000000
vn 0.000000 -1.000000 0.000000
vn 0.000000 -1.000000 0.000001
vn 0.000000 -1.000000 0.000000
vn 0.000000 -1.000000 0.000000
vn 0.000000 -1.000000 0.000001
vn 0.000000 -1.000000 0.000001
vn 0.000000 -1.000000 0.000000
vn 0.446050 0.138161 -0.884280
vn 0.445739 0.138584 -0.884371
vn 0.454213 0.127003 -0.881794
vn -0.205722 0.461142 -0.863149
vn -0.206447 0.460859 -0.863128
vn -0.185270 0.469005 -0.863545
vn -0.647475 0.676598 -0.350700
vn -0.647846 0.676253 -0.350682
vn -0.620410 0.700949 -0.351797
vn -0.647846 0.676253 0.350682
vn -0.647475 0.676598 0.350700
vn -0.620410 0.700949 0.351797
vn -0.206447 0.460858 0.863128
vn -0.205722 0.461142 0.863149
vn -0.185270 0.469005 0.863545
vn 0.445739 0.138584 0.884371
vn 0.446050 0.138161 0.884280
vn 0.454213 0.127003 0.881794
vn 0.922875 -0.101038 0.371608
vn 0.922846 -0.101396 0.371583
vn 0.920825 -0.123400 0.369937
vn 0.922846 -0.101396 -0.371583
vn 0.922875 -0.101037 -0.371608
vn 0.920825 -0.123400 -0.369937
vn 0.382683 0.000395 -0.923880
vn 0.382683 0.000395 -0.923880
vn 0.382683 0.000395 -0.923880
vn 0.382683 0.000395 -0.923880
vn -0.382683 -0.000395 -0.923879
vn -0.382683 -0.000395 -0.923880
vn -0.382683 -0.000395 -0.923879
vn -0.382683 -0.000395 -0.923879
vn -0.923879 -0.000952 -0.382683
vn -0.923879 -0.000952 -0.382683
vn -0.923879 -0.000952 -0.382683
vn -0.923879 -0.000952 -0.382683
vn -0.923879 -0.000952 0.382683
vn -0.923879 -0.000952 0.382683
vn -0.923879 -0.000952 0.382683
vn -0.923879 -0.000952 0.382683
vn -0.382683 -0.000395 0.923880
vn -0.382683 -0.000395 0.923879
vn -0.382683 -0.000395 0.923879
vn -0.382683 -0.000395 0.923879
vn 0.382683 0.000395 0.923880
vn 0.382683 0.000395 0.923880
vn 0.382683 0.000395 0.923880
vn 0.382683 0.000395 0.923880
vn 0.923879 0.000953 0.382683
vn 0.923879 0.000953 0.382683
vn 0.923879 0.000953 0.382683
vn 0.923879 0.000953 0.382683
vn 0.923879 0.000953 -0.382683
vn 0.923879 0.000953 -0.382683
vn 0.923879 0.000953 -0.382683
vn 0.923879 0.000953 -0.382683
s off
g pCone1
usemtl pCone1SG3
f 1/82/1 2/88/2 10/10/3 9/9/4
f 2/88/5 3/87/6 11/11/7 10/10/8
f 3/87/9 4/86/10 12/12/11 11/11/12
f 4/86/13 5/85/14 13/13/15 12/12/16
f 5/85/17 6/84/18 14/14/19 13/13/20
f 6/84/21 7/83/22 15/15/23 14/14/24
f 7/83/25 8/81/26 16/16/27 15/15/28
f 8/81/29 1/82/30 9/9/31 16/16/32
f 9/17/33 10/18/34 18/27/35 17/26/36
f 10/18/37 11/19/38 19/28/39 18/27/40
f 11/19/41 12/20/42 20/29/43 19/28/44
f 12/20/45 13/21/46 21/30/47 20/29/48
f 13/21/49 14/22/50 22/31/51 21/30/52
f 14/22/53 15/23/54 23/32/55 22/31/56
f 15/23/57 16/24/58 24/33/59 23/32/60
f 16/24/61 9/25/62 17/34/63 24/33/64
f 17/26/65 18/27/66 26/36/67 25/35/68
f 18/27/69 19/28/70 27/37/71 26/36/72
f 19/28/73 20/29/74 28/38/75 27/37/76
f 20/29/77 21/30/78 29/39/79 28/38/80
f 21/30/81 22/31/82 30/40/83 29/39/84
f 22/31/85 23/32/86 31/41/87 30/40/88
f 23/32/89 24/33/90 32/42/91 31/41/92
f 24/33/93 17/34/94 25/43/95 32/42/96
f 25/35/97 26/36/98 34/45/99 33/44/100
f 26/36/101 27/37/102 35/46/103 34/45/104
f 27/37/105 28/38/106 36/47/107 35/46/108
f 28/38/109 29/39/110 37/48/111 36/47/112
f 29/39/113 30/40/114 38/49/115 37/48/116
f 30/40/117 31/41/118 39/50/119 38/49/120
f 31/41/121 32/42/122 40/51/123 39/50/124
f 32/42/125 25/43/126 33/52/127 40/51/128
f 33/44/129 34/45/130 42/54/131 41/53/132
f 34/45/133 35/46/134 43/55/135 42/54/136
f 35/46/137 36/47/138 44/56/139 43/55/140
f 36/47/141 37/48/142 45/57/143 44/56/144
f 37/48/145 38/49/146 46/58/147 45/57/148
f 38/49/149 39/50/150 47/59/151 46/58/152
f 39/50/153 40/51/154 48/60/155 47/59/156
f 40/51/157 33/52/158 41/61/159 48/60/160
f 41/53/161 42/54/162 50/63/163 49/62/164
f 42/54/165 43/55/166 51/64/167 50/63/168
f 43/55/169 44/56/170 52/65/171 51/64/172
f 44/56/173 45/57/174 53/66/175 52/65/176
f 45/57/177 46/58/178 54/67/179 53/66/180
f 46/58/181 47/59/182 55/68/183 54/67/184
f 47/59/185 48/60/186 56/69/187 55/68/188
f 48/60/189 41/61/190 49/70/191 56/69/192
f 59/73/193 58/74/194 60/71/195
f 61/75/196 59/73/197 60/71/198
f 62/76/199 61/75/200 60/71/201
f 63/77/202 62/76/203 60/71/204
f 64/78/205 63/77/206 60/71/207
f 65/79/208 64/78/209 60/71/210
f 66/80/211 65/79/212 60/71/213
f 58/90/214 66/80/215 60/71/216
f 49/62/217 50/63/218 57/72/219
f 50/63/220 51/64/221 57/72/222
f 51/64/223 52/65/224 57/72/225
f 52/65/226 53/66/227 57/72/228
f 53/66/229 54/67/230 57/72/231
f 54/67/232 55/68/233 57/72/234
f 55/68/235 56/69/236 57/72/237
f 56/69/238 49/70/239 57/72/240
f 2/2/241 1/89/242 58/74/243 59/73/244
f 3/3/245 2/2/246 59/73/247 61/75/248
f 4/4/249 3/3/250 61/75/251 62/76/252
f 5/5/253 4/4/254 62/76/255 63/77/256
f 6/6/257 5/5/258 63/77/259 64/78/260
f 7/7/261 6/6/262 64/78/263 65/79/264
f 8/8/265 7/7/266 65/79/267 66/80/268
f 1/1/269 8/8/270 66/80/271 58/90/272
